<?xml version="1.0" encoding="utf-8"?>
<svg version="1.1" viewBox="165 105 258 258" width="550" height="470" xmlns="http://www.w3.org/2000/svg">
  <g fill="#47D7AC" fill-rule="none" stroke="none" stroke-width="1" stroke-linecap="butt" stroke-linejoin="miter" stroke-miterlimit="10" stroke-dasharray="" stroke-dashoffset="0" font-family="none" font-weight="none" font-size="none" text-anchor="none" style="mix-blend-mode: normal;" transform="matrix(0.995516, 0, 0, 0.993273, 20.322866, 0.13453)">
    <g data-paper-data="{&quot;isGlobalGroup&quot;:true,&quot;bounds&quot;:{&quot;x&quot;:145.99953358984686,&quot;y&quot;:106.00000000000001,&quot;width&quot;:258.0009328203063,&quot;height&quot;:258}}" fill="#47D7AC">
      <g data-paper-data="{&quot;fillRule&quot;:&quot;evenodd&quot;,&quot;fillRuleOriginal&quot;:&quot;evenodd&quot;,&quot;isIcon&quot;:true,&quot;iconStyle&quot;:&quot;standalone&quot;,&quot;selectedEffects&quot;:{&quot;container&quot;:&quot;enclosed_circle_outline3&quot;,&quot;transformation&quot;:&quot;&quot;,&quot;pattern&quot;:&quot;&quot;},&quot;bounds&quot;:{&quot;x&quot;:201.84484225562548,&quot;y&quot;:164.1059365696654,&quot;width&quot;:146.9486101437253,&quot;height&quot;:141.788686552853},&quot;widthRatioIconToContainer&quot;:1,&quot;heightRatioIconToContainer&quot;:0.8291130889084426,&quot;relativeBoundsIconToContainer&quot;:{&quot;top&quot;:0.057408848718261705,&quot;left&quot;:0},&quot;iconType&quot;:&quot;icon&quot;,&quot;rawIconId&quot;:&quot;34322&quot;,&quot;combineTerms&quot;:&quot;goku&quot;,&quot;isDetailed&quot;:false,&quot;blockLetter&quot;:&quot;O&quot;,&quot;suitableAsStandaloneIcon&quot;:true}" fill-rule="evenodd" fill="#47D7AC">
        <path d="M348.79345,252.13671l-32.02663,19.55723c0,0 8.60629,-0.80332 15.6092,2.9455l-23.41381,6.69759l6.99638,4.55541l-17.85589,1.02864c-1.77318,4.65011 -2.85733,6.16858 -3.55289,6.8625c-3.54472,3.53003 -15.52103,7.52703 -16.87623,7.96951l-0.50616,0.16654l-0.50289,-0.16491c-1.35683,-0.44411 -13.33477,-4.43948 -16.88113,-7.96951c-0.83924,-0.83761 -2.22872,-2.80998 -4.76113,-10.1917h-0.02613c-0.57636,0 -1.02211,-0.14532 -1.31601,-0.26777l-28.6909,-1.98707l13.99767,-7.77195l-34.71905,-11.51914l32.83158,-13.12577c0,0 -12.91515,-26.25645 -35.2546,-33.48795c0,0 18.83555,-12.59349 27.98718,-13.39845c9.15327,-0.80169 12.91678,0.27104 19.91644,5.09258c6.99802,4.82155 11.84406,9.10755 11.84406,9.10755c0,0 1.07926,-15.26959 -2.42139,-24.10936c-2.52425,-6.37757 -3.22144,-7.57929 -3.41574,-7.76542c0.46044,0.03102 13.32498,0.93557 25.48415,8.30096c0,0 5.38158,5.08605 7.26579,14.19687c1.88257,9.11244 2.95857,14.73731 2.68916,17.41504c0,0 15.3398,4.28764 19.10985,15.80677l29.06806,-1.60664l-12.3796,11.51914zM299.45628,280.18103l0.48819,0.03265c1.77155,-0.35594 8.36138,-7.35886 8.12952,-12.55431c-0.03265,-0.62535 -0.19103,-2.67937 -1.05313,-2.67937c-0.27104,0 -0.54697,0.1094 -0.63351,0.14858c-0.0947,0.04572 -1.00578,0.44575 -1.91523,1.10375c-1.96421,2.16341 -4.32519,4.50969 -5.47302,4.65174c0,0 0.54045,-1.87604 0.54045,-4.01823l-3.77168,2.14545c0,0 4.03946,-11.51914 2.42465,-14.46627c0,0 -6.73025,14.1985 -12.11183,16.61009c0,0 1.6148,-13.40008 0.53718,-20.36381c0,0 -14.25891,9.64799 -20.45034,21.16713c0,0 -1.07763,-11.78854 -1.07763,-18.21836c0,0 -7.54009,4.286 -7.26742,8.30423l0.80659,7.76868c0,0 -2.69406,-0.53392 -4.84604,-3.74882l0.10776,5.6265c0,0 -2.93407,-2.08341 -6.32369,-6.6633c-0.06368,-0.00816 -0.1143,-0.04572 -0.1796,-0.04572c-0.86373,0 -1.02211,2.05402 -1.05313,2.67937c-0.23512,5.19219 6.35308,12.1951 8.12626,12.55104l0.47677,0.17471l1.76665,-1.18049l0.89312,1.93809c0.31022,0.93557 0.59923,1.76992 0.87516,2.54874c2.07524,5.84529 3.18552,7.41111 3.59208,7.81767c2.42955,2.41975 11.27912,5.73263 15.10141,7.02088c3.81903,-1.28825 12.67023,-4.60275 15.09815,-7.02088c0.32166,-0.32329 1.10375,-1.4205 2.44588,-4.77583c0.5731,-1.43193 1.23763,-3.22961 2.03279,-5.62487l0.69392,-2.09483l1.78624,1.29805zM224.88589,184.87039c6.54048,-6.54048 14.05172,-11.60452 22.53373,-15.19211c8.7831,-3.71489 17.98172,-5.57234 27.59587,-5.57234c9.61448,0 18.81326,1.85744 27.59631,5.57234c8.48191,3.5876 15.99317,8.65164 22.53378,15.19211c6.54061,6.54051 11.60464,14.05175 15.1921,22.53373c3.71486,8.783 5.57229,17.98167 5.57229,27.59601c0,1.68132 -0.0568,3.34994 -0.17041,5.00583l-2.71654,-4.00383l-0.12606,-0.17609l-0.13407,-0.16959l-0.14207,-0.16308l-0.15058,-0.15608l-0.15758,-0.14807l-0.16458,-0.14007l-0.17158,-0.13257l-0.17759,-0.12306l-0.18359,-0.11506l-0.18859,-0.10505l-0.1941,-0.09655l-0.1981,-0.08605l-0.2026,-0.07684l-0.2056,-0.06663l-0.17424,-0.04702c-0.09998,-8.58758 -1.81229,-16.81151 -5.13693,-24.67181c-3.31132,-7.82895 -7.98666,-14.76296 -14.02602,-20.802c-6.03902,-6.03908 -12.973,-10.71429 -20.80192,-14.02563c-8.10372,-3.42772 -16.59431,-5.14158 -25.47175,-5.14158c-8.87711,0 -17.36761,1.71386 -25.4715,5.14158c-7.82892,3.31135 -14.76291,7.98656 -20.80196,14.02563c-3.6525,3.6525 -6.80612,7.63236 -9.46082,11.93957l-0.01257,0.00544l-1.41751,0.63447l-1.3954,0.65638l-1.37679,0.67543l-1.36078,0.69215l-1.34687,0.70715l-1.33462,0.72076l-0.21756,0.12053c3.49409,-7.45492 8.18302,-14.12427 14.06679,-20.00803zM325.14559,285.13023c-6.54061,6.54028 -14.05187,11.60431 -22.53378,15.1921c-7.37226,3.11815 -15.03741,4.92766 -22.99545,5.42852l0.59023,-0.1984l1.43772,-0.50375l1.43222,-0.52126l1.42872,-0.54027l1.42722,-0.56178l1.42822,-0.5863l1.43071,-0.61581l1.33817,-0.6073l0.09805,-0.04602l1.32266,-0.63982l0.12406,-0.06253l1.30216,-0.68134l0.16558,-0.09155l1.27163,-0.73637l0.23912,-0.14857l6.11038,-4.02791c3.0236,-1.29474 5.913,-2.79401 8.66817,-4.49781l0.91229,-0.05259l2.93447,-0.16909l1.46673,-0.08404l1.46724,-0.08454l0.73287,-0.10455l0.70535,-0.22561l0.65733,-0.34067l0.5913,-0.44572l9.73474,-7.78788c-1.11187,1.28036 -2.27458,2.52732 -3.48812,3.74085zM275.01549,305.89462c-9.61415,0 -18.81277,-1.85743 -27.59587,-5.57229c-8.19144,-3.46487 -15.47745,-8.30656 -21.85805,-14.52505l8.9543,0.6203c4.57701,3.61951 9.58638,6.58009 15.02811,8.88174c2.88957,1.22221 5.82829,2.22651 8.81617,3.01292l0.97249,0.67643l0.26263,0.16959l1.26263,0.75138l0.17859,0.10105l1.29615,0.69185l0.13206,0.06753l1.31866,0.64832l0.10306,0.04852l1.41921,0.65133l1.41821,0.61631l1.41921,0.5868l1.42121,0.56328l1.42421,0.54227l1.43021,0.52476l1.44222,0.50876l1.28479,0.4341c-0.04339,0.00007 -0.0868,0.00011 -0.1302,0.00011zM204.12141,235.00013c0,-4.35776 0.3816,-8.63013 1.14479,-12.81711l0.07156,0.03723l4.92487,3.19456c-0.45854,3.14339 -0.68781,6.3385 -0.68781,9.58532c0,6.56277 0.9367,12.91428 2.81011,19.05455l-5.08092,2.03134c-2.12173,-6.7912 -3.1826,-13.81982 -3.1826,-21.08588z" data-paper-data="{&quot;isPathIcon&quot;:true}" fill="#47D7AC"/>
      </g>
      <g data-paper-data="{&quot;isPrimaryText&quot;:true}" fill-rule="nonzero" fill="#47D7AC">
        <path d="M179.57008,205.75795l-16.87988,4.8076l20.29641,6.21011l1.08002,-3.52981l-8.35388,-2.55604l10.35807,-2.94282l-6.93801,-8.23491l8.35388,2.55604l1.08002,-3.52981l-20.29641,-6.21011z" data-paper-data="{&quot;glyphName&quot;:&quot;M&quot;,&quot;glyphIndex&quot;:0,&quot;firstGlyphOfWord&quot;:true,&quot;word&quot;:1}" fill="#47D7AC"/>
        <path d="M201.15876,177.66706l2.29863,-3.3472l-22.89503,-4.15474l12.09842,19.87643l2.28122,-3.32184l-2.80341,-4.61197l3.72657,-5.42652zM190.03603,178.64877l-2.0439,-3.38138l3.88977,0.69347z" data-paper-data="{&quot;glyphName&quot;:&quot;A&quot;,&quot;glyphIndex&quot;:1,&quot;word&quot;:1}" fill="#47D7AC"/>
        <path d="M205.94493,143.72118l7.56847,9.30822l-16.83208,-2.17248l13.39037,16.46838l2.86407,-2.32876l-7.56847,-9.30822l16.83208,2.17248l-13.39037,-16.46838z" data-paper-data="{&quot;glyphName&quot;:&quot;N&quot;,&quot;glyphIndex&quot;:2,&quot;word&quot;:1}" fill="#47D7AC"/>
        <path d="M237.66694,140.08182l2.83418,-1.1958l1.55454,3.68443c-0.7497,1.15099 -1.84571,2.11423 -3.20611,2.68821c-3.59941,1.51867 -7.75028,-0.16886 -9.26895,-3.76827c-1.51867,-3.59941 0.16886,-7.75028 3.76827,-9.26895c2.26734,-0.95664 4.74154,-0.63169 6.633,0.60688l0.27308,-4.02151c-2.59114,-1.0769 -5.56354,-1.15827 -8.34103,0.01361c-5.46996,2.30789 -8.04222,8.63496 -5.73432,14.10492c2.30789,5.46996 8.63496,8.04222 14.10492,5.73432c2.77749,-1.17188 4.79325,-3.35786 5.82985,-5.96539l-3.64719,-8.64424l-7.9357,3.34824z" data-paper-data="{&quot;glyphName&quot;:&quot;G&quot;,&quot;glyphIndex&quot;:3,&quot;word&quot;:1}" fill="#47D7AC"/>
        <path d="M271.36223,141.58811l4.04125,-0.39468l-11.55392,-20.1978l-7.4277,22.05161l4.01063,-0.39169l1.72592,-5.11376l6.55172,-0.63986zM263.45285,133.70646l1.27279,-3.74049l1.97245,3.42355z" data-paper-data="{&quot;glyphName&quot;:&quot;A&quot;,&quot;glyphIndex&quot;:4,&quot;word&quot;:1}" fill="#47D7AC"/>
        <path d="M302.60682,131.63928c0.7959,-4.16976 -1.94231,-8.19987 -6.11207,-8.99577l-7.55392,-1.44185l-3.92182,20.54666l3.62588,0.69209l1.03813,-5.43882l2.99135,0.57097l2.95034,6.20012l4.50214,0.85934l-3.30691,-6.95714c2.85369,-0.67665 5.19861,-2.9536 5.78688,-6.0356zM291.87463,125.51963l3.92804,0.74976c2.17553,0.41525 3.59353,2.50227 3.17828,4.6778c-0.41525,2.17553 -2.50227,3.59353 -4.6778,3.17828l-3.92804,-0.74976z" data-paper-data="{&quot;glyphName&quot;:&quot;R&quot;,&quot;glyphIndex&quot;:5,&quot;word&quot;:1}" fill="#47D7AC"/>
        <path d="M314.70519,146.19069l2.15161,-4.42658l7.19319,3.49637l1.61371,-3.31993l-7.19319,-3.49637l2.15161,-4.42658l7.19319,3.49637l3.27367,-2.51308l-12.17308,-5.91693l-9.14435,18.81295l12.17308,5.91693l-0.04626,-4.12679z" data-paper-data="{&quot;glyphName&quot;:&quot;E&quot;,&quot;glyphIndex&quot;:6,&quot;word&quot;:1}" fill="#47D7AC"/>
        <path d="M340.52889,168.33421l3.05818,2.67114l6.78069,-22.25908l-21.14487,9.71281l3.03501,2.6509l4.90585,-2.2499l4.95796,4.33049zM340.84313,157.17266l3.59551,-1.63816l-1.1397,3.78316z" data-paper-data="{&quot;glyphName&quot;:&quot;A&quot;,&quot;glyphIndex&quot;:7,&quot;word&quot;:1}" fill="#47D7AC"/>
        <path d="M359.28032,186.25874l-4.35109,-6.71078l14.45399,-9.37157l-2.00819,-3.09728l-17.55127,11.37976l7.36338,11.3567z" data-paper-data="{&quot;glyphName&quot;:&quot;L&quot;,&quot;glyphIndex&quot;:8,&quot;word&quot;:1}" fill="#47D7AC"/>
        <path d="M370.4414,205.7819l11.29978,-13.42975l-20.29641,6.21011l1.08002,3.52981l8.35388,-2.55604l-6.93801,8.23491l10.35807,2.94282l-8.35388,2.55604l1.08002,3.52981l20.29641,-6.21011z" data-paper-data="{&quot;glyphName&quot;:&quot;M&quot;,&quot;glyphIndex&quot;:9,&quot;lastGlyphOfWord&quot;:true,&quot;word&quot;:1}" fill="#47D7AC"/>
      </g>
      <g data-paper-data="{&quot;isContainerElementsWrapper&quot;:true}" fill-rule="evenodd" fill="#47D7AC">
        <path d="M274.99972,106c-17.4859,0 -34.22599,3.38253 -50.22025,10.14759c-15.43632,6.529 -29.10189,15.74088 -40.99671,27.63564c-11.89476,11.89483 -21.10665,25.5604 -27.63564,40.99671c-6.76506,15.99451 -10.14759,32.73459 -10.14759,50.22025c0,17.48609 3.38253,34.2262 10.14759,50.22034c6.529,15.43631 15.74088,29.10182 27.63564,40.99652c11.89481,11.8947 25.56038,21.10661 40.99671,27.63573c15.99445,6.76481 32.73453,10.14722 50.22025,10.14722c17.48581,0 34.22527,-3.38241 50.22034,-10.14722c15.43631,-6.52912 29.10182,-15.74103 40.99652,-27.63573c11.8947,-11.8947 21.10661,-25.56021 27.63573,-40.99652c6.75828,-15.98014 10.14069,-32.70421 10.14722,-50.1723c0.00093,-0.01595 0.00093,-0.032 0.00093,-0.04804c0,-17.486 -3.38241,-34.22611 -10.14815,-50.22025c-6.5285,-15.43624 -15.74041,-29.10181 -27.63573,-40.99671c-11.8947,-11.8947 -25.56021,-21.10658 -40.99652,-27.63564c-15.99414,-6.76506 -32.73425,-10.14759 -50.22034,-10.14759zM216.79901,176.79948c-15.76674,15.76684 -23.79967,34.73708 -24.09879,56.91071h-44.11444c0.1624,-16.67071 3.47494,-32.64573 9.93761,-47.92523c6.39828,-15.12731 15.4262,-28.51975 27.08378,-40.17732c11.65755,-11.65758 25.04999,-20.68551 40.17732,-27.08378c15.67318,-6.62924 32.07826,-9.94386 49.21523,-9.94386c17.13659,0 33.54151,3.31462 49.21476,9.94386c15.12786,6.39834 28.52036,15.42627 40.1775,27.08378c11.65777,11.65759 20.6856,25.05002 27.0835,40.17732c6.4632,15.27972 9.77596,31.2548 9.93827,47.92523h-44.11401c-0.29944,-22.17351 -8.33195,-41.14372 -24.09941,-56.91071c-16.07125,-16.07163 -35.47146,-24.10744 -58.20062,-24.10744c-22.72879,0 -42.12903,8.03581 -58.20071,24.10744zM274.99972,155.27203c22.01649,0 40.80849,7.78392 56.37602,23.35176c15.56815,15.56784 23.35222,34.35997 23.35222,56.37639c0,22.01649 -7.78407,40.80849 -23.35222,56.37602c-15.56753,15.56815 -34.35953,23.35222 -56.37602,23.35222c-22.0163,0 -40.8084,-7.78407 -56.3763,-23.35222c-15.56677,-15.56628 -23.35073,-34.35667 -23.35188,-56.37117l0.00001,-0.00485c0,-22.0163 7.78396,-40.8084 23.35187,-56.3763c15.56784,-15.5679 34.35994,-23.35185 56.3763,-23.35185zM171.40116,260.67802l-0.59393,-2.6035l5.64366,-1.28729l-0.27798,-1.21826l-6.74793,1.54009l0.872,3.82083zM373.8256,255.61281l-0.26212,1.22199l6.76668,1.45427l0.26306,-1.22199zM377.05688,263.12948c1.36938,0.40951 1.77516,1.2817 1.30408,2.85723c-0.47107,1.57647 -1.2733,2.03075 -2.64268,1.62124l-2.80779,-0.83861c-1.40389,-0.41977 -1.79754,-1.20427 -1.31901,-2.80592c0.47854,-1.60165 1.25371,-2.09232 2.65761,-1.67255zM376.01306,266.40181c0.62872,0.1875 1.03916,0.13246 1.29662,-0.72853c0.25746,-0.86193 -0.03918,-1.18468 -0.6679,-1.37311l-2.68746,-0.80316c-0.6026,-0.18003 -1.03636,-0.14086 -1.31248,0.78077c-0.25746,0.86099 0.08116,1.14084 0.68469,1.32087zM178.27558,263.89625l-6.60008,2.11377l1.25315,3.91225l1.07862,-0.34514l-0.87471,-2.7313l1.73775,-0.55596l0.71295,2.22571l1.06146,-0.34048l-0.71295,-2.22571l1.69493,-0.5429l0.83637,2.61096l1.02722,-0.32929zM373.36758,273.79721c0.60727,0.24626 0.86752,0.7304 0.59048,1.41322c-0.27705,0.68282 -0.77611,0.79103 -1.38431,0.54383l-4.44862,-1.80314l-0.46641,1.14923l4.50739,1.82739c1.32367,0.5373 2.26116,0.04384 2.80872,-1.30502c0.54663,-1.34979 0.2416,-2.41414 -1.083,-2.95144l-4.50645,-1.82739l-0.46641,1.14923zM178.69936,276.95574l-0.45764,-1.08487l1.03524,-0.43656l0.90484,2.14455l-1.6565,0.69868c-1.3997,0.59048 -2.28373,0.18283 -2.92299,-1.33207c-0.63936,-1.51583 -0.29319,-2.38429 1.08161,-2.96357l2.55929,-1.08021c1.30026,-0.54757 2.15295,-0.21455 2.80266,1.32554c0.6498,1.54009 0.3804,2.40481 -0.98618,2.98129l-0.48208,-1.1427c0.59635,-0.25093 0.83161,-0.52611 0.45783,-1.41229c-0.34934,-0.82834 -0.78842,-0.82834 -1.36817,-0.58395l-2.50126,1.05502c-0.60456,0.25466 -0.88609,0.55876 -0.53674,1.3871c0.34934,0.82834 0.81948,0.97107 1.44895,0.70614zM366.81638,281.7467l-1.58393,-1.49718l0.58208,-1.12591l5.29376,4.83108l-0.59421,1.15017l-7.00735,-1.5177l0.58208,-1.12591l2.15295,0.43563l3.17159,0.91043zM182.49389,284.75598l0.55773,1.0373l-0.59374,0.31902c-0.60176,0.32369 -1.08319,0.22574 -1.50893,-0.56622c-0.42574,-0.79196 -0.17416,-1.12032 0.40382,-1.43188l2.39091,-1.28543c0.5541,-0.29757 0.99131,-0.33861 1.41695,0.45242c0.45559,0.847 0.2472,1.1427 -0.32285,1.4496l0.58749,1.09233c1.30632,-0.70241 1.49307,-1.58859 0.70129,-3.06152c-0.79187,-1.47199 -1.67208,-1.72385 -2.91497,-1.05502l-2.44632,1.31528c-1.31416,0.70708 -1.57712,1.60352 -0.79803,3.05219c0.77909,1.44867 1.69755,1.77143 3.03549,1.05222l1.58337,-0.85166l-1.10259,-2.05034zM189.76551,289.11972l0.67657,1.05036l-5.81885,3.74807l-0.67657,-1.05036zM362.34538,298.36863c0.9664,-1.33113 0.87219,-2.28821 -0.28451,-3.12775l-2.37216,-1.72105c-1.18561,-0.86006 -2.07926,-0.65391 -3.06152,0.69868c-0.98226,1.35352 -0.86939,2.22384 0.31623,3.0839l2.37123,1.72199c1.1567,0.83954 2.06433,0.67536 3.03073,-0.65577zM361.45733,297.72498c-0.52798,0.72667 -0.93375,0.64365 -1.46453,0.25839l-2.26955,-1.64736c-0.50932,-0.3694 -0.73693,-0.74532 -0.20895,-1.47292c0.56529,-0.7789 0.98786,-0.67163 1.49718,-0.30223l2.26955,1.64736c0.53077,0.38525 0.70428,0.78917 0.1763,1.51677zM193.32352,305.4506c-0.84227,0.79849 -0.78995,1.73971 0.3057,2.70518l0.74828,-0.64644c-0.69178,-0.64924 -0.50564,-0.92909 -0.17542,-1.26211c0.71341,0.44122 1.46946,0.2985 2.27896,-0.40018l2.1224,-1.83299c1.10882,-0.95801 1.12576,-1.8871 0.03287,-3.15293c-1.09289,-1.2649 -1.97945,-1.34233 -3.08826,-0.38432l-2.17002,1.87404c-1.08161,0.93375 -1.12979,1.85445 -0.05452,3.09976zM354.46678,307.94216l-5.19674,-4.57175l1.50184,-1.70706c1.10446,-1.25558 2.01396,-1.37778 3.11375,-0.40951l2.11937,1.86471c1.07274,0.94401 1.05036,1.8815 -0.03638,3.11655zM194.15344,304.73326c-0.58758,-0.68003 -0.41351,-1.05595 0.08308,-1.48505l2.07478,-1.79195c0.49659,-0.4291 0.89394,-0.54663 1.48151,0.13339c0.62871,0.72853 0.44876,1.09793 -0.04783,1.52609l-2.07479,1.79288c-0.49659,0.42816 -0.92918,0.50559 -1.51676,-0.17537zM350.93325,303.19411l3.50274,3.08111l0.68935,-0.78264c0.59327,-0.67443 0.50559,-1.05129 0.01306,-1.48505l-2.02422,-1.78075c-0.49346,-0.43376 -0.8442,-0.5513 -1.47945,0.17071zM201.03899,312.05683c0.53205,0.51025 1.07748,0.44775 1.53161,-0.02612l3.32196,-3.46449l0.8954,0.85819l-3.3655,3.5102c-0.98913,1.0317 -2.09129,0.92163 -3.14242,-0.08675c-1.05113,-1.00745 -1.16229,-2.0606 -0.17318,-3.0923l3.36551,-3.5102l0.8954,0.85819l-3.32196,3.46543c-0.45412,0.47294 -0.53888,0.9776 -0.00683,1.48785zM345.7589,307.00748l-0.89644,0.8442l1.12032,1.19121l2.09978,2.03541l-4.6016,-1.92721l-0.89737,0.84327l4.73593,5.03536l0.89737,-0.8442l-1.20707,-1.28356l-1.87683,-1.83766l4.485,1.80314l0.87778,-0.82461zM210.58251,312.71914l-4.31342,5.42435l3.2153,2.55686l0.70493,-0.88618l-2.24437,-1.78542l1.13562,-1.42815l1.82935,1.4552l0.69365,-0.87312l-1.82926,-1.45427l1.10772,-1.3927l2.14586,1.70613l0.67135,-0.8442zM336.70961,314.85996l0.97013,-0.75838l5.74617,4.28071l-1.00465,0.78637l-1.02983,-0.74719l-1.39457,1.0914l0.47014,1.18468l-1.00558,0.78637zM338.36443,315.99707l1.12498,2.37216l0.9067,-0.70894zM215.5148,323.60235l2.2259,1.47386l-0.62527,0.94495l-3.26767,-2.16414l3.82148,-5.77136l1.04177,0.69029zM333.30948,323.20404c0.35634,0.55036 0.29104,1.09606 -0.32742,1.49624c-0.61846,0.40018 -1.08953,0.20242 -1.44587,-0.34887l-2.6091,-4.02885l-1.04103,0.6735l2.64268,4.08295c0.77611,1.19961 1.82646,1.333 3.04939,0.54197c1.22199,-0.79103 1.583,-1.83859 0.80689,-3.0382l-2.64268,-4.08295l-1.04196,0.67443zM225.60409,329.62184l-2.34296,-1.27983l2.77495,-5.08014l-1.09653,-0.59887l-3.31786,6.07359l3.4394,1.8787zM327.48215,331.01454c-1.19214,0.8442 -2.11937,0.67909 -2.70331,-0.32462c-1.45893,0.76025 -2.34324,0.50186 -3.00368,-0.76585l-1.32554,-2.54287c-0.67723,-1.29942 -0.39738,-2.14362 1.08487,-2.91693c1.48318,-0.77238 2.38336,-0.54197 3.06058,0.75745l1.29569,2.4869c0.49439,0.94868 0.45895,1.71732 -0.13433,2.30966c0.24813,0.39831 0.4776,0.64365 1.26864,0.1194zM322.84603,329.29535c0.30317,0.58208 0.62872,0.83767 1.42628,0.42257c0.79663,-0.41511 0.82181,-0.85446 0.51865,-1.43654l-1.26677,-2.43093c-0.30317,-0.58208 -0.62126,-0.84234 -1.47479,-0.39738c-0.79663,0.41511 -0.77424,0.82928 -0.47014,1.41136zM234.57642,332.85033c-0.57527,1.30781 -1.49046,1.60259 -2.99631,0.94122c-1.50576,-0.6623 -1.8578,-1.51397 -1.28253,-2.82271l1.17946,-2.68279c0.58973,-1.3414 1.4163,-1.63523 2.94687,-0.96267c1.53048,0.6735 1.9217,1.50277 1.33197,2.84417zM231.45837,331.41006c-0.26408,0.60074 -0.2597,1.01584 0.56314,1.37684c0.82284,0.36193 1.18058,0.10727 1.44466,-0.49346l1.12881,-2.56712c0.25326,-0.57648 0.268,-1.01211 -0.61249,-1.39923c-0.82284,-0.36193 -1.14205,-0.0597 -1.39531,0.51585zM309.24551,329.98004l-1.17815,0.41604l2.30873,6.52508l1.17815,-0.41604zM304.5357,336.6693c0.36846,1.38151 -0.16231,2.1828 -1.7509,2.60723c-1.58953,0.4235 -2.39735,-0.02239 -2.76488,-1.40296l-0.75465,-2.83111c-0.37779,-1.41602 0.08395,-2.16228 1.6996,-2.59324c1.61564,-0.43003 2.43933,-0.02705 2.81618,1.38897zM249.08103,337.49111c-0.17425,0.66044 -0.48777,0.96827 -1.35697,0.73879c-0.8692,-0.22947 -0.93804,-0.63805 -0.7706,-1.27237l0.68544,-2.59884c0.16735,-0.63432 0.42882,-0.95521 1.29793,-0.72667c0.93002,0.24533 0.99019,0.65204 0.81827,1.30408l1.19942,0.31623c0.39206,-1.48598 -0.12136,-2.25369 -1.73794,-2.67999c-1.61667,-0.42723 -2.38737,-0.00746 -2.76105,1.40949l-0.71762,2.7201c-0.36445,1.38244 0.11595,2.16881 1.7065,2.58858c1.59055,0.41977 2.44865,-0.01399 2.83605,-1.48318zM301.2018,337.49298c0.16884,0.63432 0.4319,0.95521 1.30035,0.72387c0.86846,-0.23134 0.98786,-0.65484 0.81902,-1.28822l-0.722,-2.70984c-0.16231,-0.6082 -0.42257,-0.95707 -1.35166,-0.70988c-0.86939,0.23134 -0.93002,0.66603 -0.76771,1.27423zM293.51536,339.10862c0.10821,0.64738 -0.16791,1.12125 -0.89551,1.24345c-0.72667,0.12127 -1.08021,-0.24813 -1.18841,-0.89551l-0.79057,-4.73406l-1.22349,0.20429l0.80101,4.79656c0.23544,1.40949 1.14588,1.94959 2.58242,1.70986c1.43654,-0.23973 2.18373,-1.05689 1.94773,-2.46731l-0.80036,-4.79656l-1.22386,0.20522zM259.57619,334.74676l1.215,0.20056l-1.12741,6.82918l-1.215,-0.20056l0.46417,-2.81152l-2.12851,-0.35167l-0.46566,2.81992l-1.23272,-0.20335l1.1289,-6.83757l1.23272,0.20335l-0.47882,2.90014l2.12851,0.35167zM283.31264,337.68607l0.44579,-2.13243l1.26397,-0.09421l-1.34401,7.03999l-1.29084,0.09608l-2.37617,-6.76481l1.26388,-0.09328l0.7568,2.06247l0.88459,3.17905zM265.80687,335.52939l-0.48675,6.91313l4.09779,0.28824l0.07948,-1.12965l-2.86031,-0.20149l0.12817,-1.81993l2.3313,0.16418l0.07826,-1.11192l-2.3313,-0.16418l0.125,-1.77516l2.73475,0.19216l0.07584,-1.07647z" data-paper-data="{&quot;isBaseLogoContainer&quot;:true}" fill="#47D7AC"/>
      </g>
    </g>
  </g>
</svg>